<?xml version="1.0" standalone="no"?>
<!DOCTYPE svg PUBLIC "-//W3C//DTD SVG 20010904//EN"
 "http://www.w3.org/TR/2001/REC-SVG-20010904/DTD/svg10.dtd">
<svg version="1.0" xmlns="http://www.w3.org/2000/svg"
 width="650.000000pt" height="384.000000pt" viewBox="0 0 650.000000 384.000000"
 preserveAspectRatio="xMidYMid meet">

<g transform="translate(0.000000,384.000000) scale(0.100000,-0.100000)"
fill="#000000" stroke="none">
<path d="M2313 3211 c-95 -35 -101 -41 -431 -427 -122 -144 -239 -273 -260
-287 -51 -34 -83 -42 -262 -66 -452 -60 -673 -93 -709 -106 -96 -33 -204 -122
-255 -209 -13 -22 -45 -104 -70 -181 -25 -77 -60 -183 -78 -236 l-31 -96 19
-38 c10 -21 32 -48 47 -59 28 -20 40 -21 398 -21 l370 0 37 45 c115 142 246
210 407 210 87 0 170 -21 246 -61 51 -27 84 -57 191 -171 l27 -29 710 3 c699
3 710 3 737 24 15 11 37 33 48 48 21 27 21 38 24 734 l2 707 23 19 c21 17 40
18 377 12 195 -3 451 -9 568 -12 l213 -6 46 -32 c41 -27 58 -53 144 -211 54
-99 98 -188 98 -198 1 -13 -5 -16 -21 -12 -13 2 -75 12 -138 20 -63 9 -191 27
-285 40 -323 46 -323 46 -359 31 -63 -26 -66 -122 -5 -153 13 -7 168 -33 344
-57 176 -25 460 -66 630 -91 171 -25 362 -52 425 -60 238 -32 353 -54 369 -70
14 -14 16 -52 16 -283 l0 -267 -280 -3 -279 -2 -61 58 c-150 147 -307 208
-512 200 -180 -7 -323 -69 -453 -195 l-64 -63 -271 0 -271 0 -27 -28 c-36 -38
-37 -89 -1 -123 l26 -24 315 -3 316 -3 41 48 c142 165 262 221 452 211 83 -5
102 -10 176 -45 84 -41 134 -82 200 -163 l37 -45 368 0 c405 0 420 2 451 59
15 27 17 70 20 315 4 356 -2 401 -64 470 -24 27 -60 56 -80 66 -22 10 -169 36
-380 66 -189 27 -355 51 -369 55 -28 7 -57 52 -155 239 -157 300 -189 344
-290 395 -73 37 -83 38 -320 44 -565 15 -1028 18 -1063 7 -22 -8 -45 -27 -63
-53 l-29 -41 -5 -711 -5 -710 -25 -13 c-19 -10 -161 -13 -621 -13 l-596 0 -68
65 c-134 127 -269 185 -448 193 -204 9 -376 -58 -517 -202 l-54 -56 -258 0
c-141 0 -259 3 -261 8 -2 4 17 75 43 157 l48 150 206 5 206 5 32 32 c29 29 32
39 37 110 l6 78 90 12 c50 6 200 26 335 43 135 17 324 42 420 55 96 13 317 42
490 65 173 23 327 46 341 51 52 20 66 103 24 144 -30 30 -26 30 -260 0 -104
-14 -260 -35 -345 -45 -85 -11 -170 -23 -187 -26 -18 -3 -33 -2 -33 2 1 5 55
72 121 149 66 77 163 190 215 251 64 75 108 117 134 129 34 16 71 17 358 14
l320 -4 27 25 c22 20 25 32 23 69 -2 34 -9 48 -30 64 -26 20 -44 21 -360 24
-311 3 -337 2 -385 -16z"/>
<path d="M1415 1413 c-54 -28 -85 -66 -101 -121 -28 -96 13 -190 101 -231 111
-52 235 2 274 118 30 90 -12 187 -100 231 -47 24 -132 26 -174 3z"/>
<path d="M4722 1414 c-141 -72 -142 -279 -2 -350 113 -58 246 1 279 124 22 79
-6 156 -75 208 -30 23 -48 29 -103 32 -47 2 -75 -2 -99 -14z"/>
<path d="M180 1323 c-66 -24 -81 -103 -29 -147 l31 -26 319 0 319 0 5 -27 c15
-72 30 -114 67 -192 53 -110 177 -238 285 -294 290 -150 652 -77 848 171 57
71 120 198 138 277 l14 60 984 0 983 0 7 -40 c10 -59 65 -191 102 -244 135
-197 333 -301 569 -301 193 0 340 62 478 200 69 68 94 102 128 171 24 47 49
115 56 150 l13 64 419 3 419 2 29 24 c43 34 42 88 -2 127 l-32 29 -465 0
c-338 0 -471 -3 -490 -12 -33 -15 -55 -56 -55 -101 0 -162 -107 -335 -261
-420 -140 -77 -336 -78 -474 -2 -148 82 -265 264 -265 411 0 59 -14 90 -49
109 -27 13 -155 15 -1113 15 -1059 0 -1084 -1 -1115 -20 -35 -21 -36 -24 -51
-143 -19 -148 -105 -276 -241 -360 -74 -46 -154 -67 -256 -67 -147 0 -254 47
-362 157 -72 74 -120 175 -129 275 -3 35 -10 78 -16 96 -18 61 -27 62 -430 61
-200 0 -370 -3 -378 -6z"/>
</g>
</svg>
